<?xml version="1.0" standalone="no"?>
<!DOCTYPE svg PUBLIC "-//W3C//DTD SVG 20010904//EN"
 "http://www.w3.org/TR/2001/REC-SVG-20010904/DTD/svg10.dtd">
<svg version="1.0" xmlns="http://www.w3.org/2000/svg"
 width="600.000000pt" height="600.000000pt" viewBox="0 0 600.000000 600.000000"
 preserveAspectRatio="xMidYMid meet">
<metadata>
Created by potrace 1.14, written by Peter Selinger 2001-2017
</metadata>
<g transform="translate(0.000000,600.000000) scale(0.100000,-0.100000)"
fill="#000000" stroke="none">
<path d="M3043 5975 c-95 -41 -219 -156 -271 -251 -36 -64 -53 -96 -93 -164
-15 -25 -36 -61 -46 -80 -11 -19 -107 -186 -213 -370 -106 -184 -226 -392
-266 -462 -84 -146 -104 -209 -100 -317 4 -104 15 -138 92 -271 37 -63 75
-131 86 -150 11 -19 56 -96 99 -171 44 -75 79 -138 79 -141 0 -3 -10 -4 -22
-3 -49 4 -198 -57 -249 -101 -8 -8 -18 -14 -22 -14 -5 0 -196 -108 -247 -140
-8 -5 -37 -21 -65 -36 -27 -14 -57 -32 -66 -40 -8 -8 -18 -14 -21 -14 -3 0
-75 -40 -159 -89 -85 -48 -225 -129 -312 -180 -88 -50 -161 -91 -164 -91 -2 0
-29 -16 -58 -36 -79 -52 -143 -158 -161 -265 -4 -24 -6 -382 -6 -795 1 -730 2
-753 21 -810 30 -84 79 -160 136 -210 27 -24 53 -44 56 -44 4 0 91 -49 194
-110 103 -60 189 -110 191 -110 1 0 55 -32 120 -70 64 -39 118 -70 119 -70 2
0 139 -79 306 -176 326 -189 357 -202 470 -191 87 9 117 23 392 182 142 83
287 166 322 185 35 19 70 41 77 48 6 6 16 12 20 12 4 0 37 18 73 40 36 22 68
40 70 40 3 0 22 11 43 23 44 28 340 200 396 231 92 50 195 197 214 307 4 24 7
375 7 779 -1 733 -1 735 -22 776 -12 23 -38 62 -57 88 -20 25 -36 47 -36 49 0
1 141 2 313 1 341 0 369 3 476 61 88 49 132 102 259 323 67 114 127 218 134
232 7 14 21 36 29 50 9 14 59 99 111 190 53 91 149 257 214 370 66 112 124
218 130 235 11 33 12 119 0 175 -10 48 -47 163 -56 175 -7 9 -226 386 -610
1050 -58 99 -119 196 -138 217 -44 48 -119 96 -197 124 l-64 23 -748 0 c-625
0 -753 -2 -780 -14z"/>
</g>
</svg>
